<?xml version="1.0" standalone="no"?>
<!DOCTYPE svg PUBLIC "-//W3C//DTD SVG 20010904//EN"
 "http://www.w3.org/TR/2001/REC-SVG-20010904/DTD/svg10.dtd">
<svg version="1.0" xmlns="http://www.w3.org/2000/svg"
 width="418.000000pt" height="138.000000pt" viewBox="0 0 418.000000 138.000000"
 preserveAspectRatio="xMidYMid meet">
<metadata>
Created by potrace 1.16, written by Peter Selinger 2001-2019
</metadata>
<g transform="translate(0.000000,138.000000) scale(0.100000,-0.100000)"
fill="#000000" stroke="none">
<path d="M0 690 l0 -690 2090 0 2090 0 0 640 0 640 -35 0 c-44 0 -75 29 -75
70 l0 30 -2035 0 -2035 0 0 -690z m408 -44 c2 -264 -1 -373 -9 -382 -14 -16
-62 -18 -90 -4 -18 10 -19 25 -19 379 0 202 3 371 7 375 4 4 30 6 58 4 l50 -3
3 -369z m730 325 c2 -24 -2 -49 -8 -55 -7 -7 -82 -13 -203 -16 l-192 -5 -3
-249 c-2 -175 1 -253 9 -262 14 -17 229 -20 260 -4 17 10 19 23 19 153 0 98 4
147 12 155 7 7 28 12 48 12 20 0 41 -5 48 -12 9 -9 12 -70 12 -215 0 -190 -1
-203 -19 -213 -12 -6 -109 -10 -246 -10 -137 0 -234 4 -246 10 -18 10 -19 25
-19 379 0 202 3 371 7 374 4 4 122 6 262 5 l256 -3 3 -44z m362 0 c0 -31 -5
-53 -15 -61 -13 -10 -15 -53 -15 -272 0 -221 2 -259 15 -264 11 -5 15 -21 15
-60 0 -63 -7 -67 -110 -62 l-65 3 -3 54 c-2 41 1 57 12 63 23 13 24 523 1 532
-11 4 -15 21 -15 61 l0 55 90 0 90 0 0 -49z m298 -100 c1 -89 7 -150 14 -158
8 -10 29 -13 67 -11 l56 3 60 92 c33 51 78 121 100 155 l40 63 55 0 c47 0 55
-3 58 -20 1 -11 -41 -89 -98 -180 -55 -87 -100 -166 -100 -175 0 -9 45 -88
100 -177 55 -89 100 -168 100 -175 0 -8 -5 -19 -12 -26 -16 -16 -80 -15 -100
1 -8 6 -53 73 -98 147 -46 74 -90 143 -98 153 -18 20 -111 24 -130 5 -8 -8
-12 -57 -12 -153 0 -96 -4 -145 -12 -153 -16 -16 -80 -16 -96 0 -9 9 -12 105
-12 369 0 197 3 365 6 374 5 12 18 15 58 13 l51 -3 3 -144z m720 -166 c2 -349
-1 -335 78 -335 76 0 74 -7 74 329 0 218 3 300 12 309 20 20 86 15 98 -7 6
-12 10 -131 10 -315 0 -282 1 -296 19 -306 11 -5 34 -10 51 -10 17 0 40 5 51
10 18 10 19 24 19 314 0 340 -2 329 72 324 l43 -3 3 -369 c2 -264 -1 -373 -9
-382 -9 -11 -69 -14 -306 -14 -184 0 -302 4 -314 10 -18 10 -19 25 -19 373 0
276 3 366 12 375 8 8 32 12 58 10 l45 -3 3 -310z m1230 303 c17 -17 15 -74 -4
-92 -13 -14 -50 -16 -250 -16 -221 0 -235 1 -254 20 -22 22 -26 51 -10 81 10
18 24 19 258 19 180 0 251 -3 260 -12z m2 -327 c14 -26 13 -74 -2 -89 -9 -9
-80 -12 -260 -12 l-248 0 -11 27 c-11 30 -4 74 14 85 7 4 121 8 254 8 229 0
243 -1 253 -19z m-2 -323 c17 -17 15 -74 -4 -92 -13 -14 -50 -16 -250 -16
-221 0 -235 1 -254 20 -22 22 -26 51 -10 81 10 18 24 19 258 19 180 0 251 -3
260 -12z"/>
</g>
</svg>
